<?xml version="1.0" encoding="UTF-8"?><svg xmlns="http://www.w3.org/2000/svg" viewBox="0 0 292.62 34.74"><defs><style>.f{fill:none;stroke:#000;stroke-linecap:round;stroke-linejoin:round;}</style></defs><g id="a"/><g id="b"><g id="c"><g id="d"><g id="e"><g><g><path d="M119.86,14.03c-.07-.04-.16-.02-.2,.05-1.26,2-3.35,3.52-5.64,4.04-2.27,.52-4.47-.64-5.13-2.84-.83-1.71-.07-3.94-1.53-5.35-1.53-.69-3.42,2.1-4.8,4.36,.15-1.02,.27-2.04,.36-3.07,.31-1.41-1.22-.95-1.22-.95-.23,.02-.52,.68-.52,.8-.04,.56-.08,1.13-.11,1.69-1.11,2.63-3.78,4.59-6.73,4.6-1.37,.06-3.01-.11-3.61-1.31,.33-.59,.57-1.25,.72-1.85,.45-1.22,.29-2.7-.44-3.8-.62-1.05-2.11-1.18-3.03-.42-1.21,.91-1.82,2.4-2.06,3.84-.15,.15-.32,.34-.53,.61-.71,.92-2.01,1.5-3.04,2.07-1.59,.74-3.21,1.48-4.89,2,.29-1.76,.03-3.82-.47-5.23-.13-.6-.39-1.21-.65-1.83,.74-.77,1.39-1.63,1.75-2.69,.38-1.41-.92-2.91-2.35-2.17-2.11,1.29-1.42,3.64-.76,5.66-2.86,3.07-7.91,6.78-11,5.75-1.86-1.2-1.82-4.18-2.06-6.23-.04-.26,.19-.75-.18-.97,0,0-.84-.09-1.2,.75-2.19,4.46-8.71,8.74-13.46,6.21-1.8-1.07-2.69-3.23-2.98-5.7,2.15-3.33,3.36-7.29,3.21-10.81-.31-1.54-1.5-1.62-2.32-.36-1.75,2.94-2.97,7.99-2.26,12.14-1.33,1.62-2.85,2.94-4.32,3.71-4.85,2.63-7.04,1.32-7.76-4.07-.02-.17,.16-.86-.1-.93-.6-.16-.9,.11-.9,.11-.17,.18-.42,.78-.38,.99-.67,.79-1.55,1.44-2.4,1.99-.64,.43-1.69,.75-2.08,.61,.76-1.56,2.42-3.52,3.8-4.74,.05-.03,.06-.05,.06-.06,.39-.04,1-.18,1.11,.34-.01,.18,.25,.23,.29,.08,.21-.44-.13-.98-.54-1.14-.4-.18-.9-.3-1.31-.16-1.75,.67-5.2,4.2-4.4,6.21,.4,.61,.98,.52,1.5,.41,1.79-.55,2.87-1.99,4.01-3.33,.03,.12,.06,.24,.06,.35,.44,2.59,2.03,6.14,5.2,5.71,3.26-.61,6.13-2.67,8.31-5.4,.52,2.2,1.62,4.09,3.58,5.15,3.01,1.39,6.38,.6,8.87-1.04,2.17-1.33,3.62-3.23,5.22-5.09,.28,4.15,2.36,8.15,7.13,5.26,2.33-1.3,4.49-2.85,6.51-4.58,.29-.27,.6-.54,.9-.82,.12,.38,.24,.74,.33,1.08,.31,1.58,.84,3.48,.67,5.16-.4,.09-.79,.17-1.2,.22-1.3,.09-4.84,2.01-1.98,2.76,2.76,.74,4.06-.92,4.48-3.1,1.75-.46,3.47-1.1,5.15-1.76,1.1-.52,2.33-.83,3.26-1.63,.03,.56,.15,1.11,.47,1.61,.31,.48,.83,.85,1.39,.95,1.06,.15,1.88-.32,2.5-1.05,.85,.94,2.22,1.07,4.18,.85,2.69-.1,5.1-1.5,6.66-3.59-.02,.89,0,1.78,.05,2.67-.02,.23,.09,.47,.33,.55,.25,.09,.53-.04,.62-.3,.4-1.11,.89-2.21,1.46-3.25,.72-1.21,1.41-2.71,2.74-3.31,.11-.05,.25-.04,.32,.07,.6,1.54,.37,3.64,.99,5.27,2.44,5.79,9.74,2.18,12.38-1.55,.06-.07,.04-.17-.04-.22v.02ZM46.17,1.13s.04-.04,.05-.06v.02c1.15,3.02-.07,6.92-2.2,10.16-.23-3.7,.78-7.88,2.14-10.12h.01Zm29.31,19.65c-.92,1.33-5.36,.84-2.37-.89,.57-.32,1.19-.54,1.83-.66,.39-.05,.77-.14,1.15-.22-.08,.63-.27,1.23-.62,1.77h.01Zm.65-9.9c-.37-.95-.63-1.9-.27-2.83,.19-.44,.6-.71,.92-.6,1.05,.6,.35,1.98-.2,2.8-.13,.2-.28,.41-.45,.63Zm14.36,4.26c-.1-.78-.29-1.71-.23-2.49,.03-.35,.18-.76,.5-.85,.07-.02,.13,0,.19,0,.26,.68,.36,1.48,.28,2.16-.14,.55-.37,1.08-.66,1.56-.03-.13-.06-.24-.07-.38h0Zm-1.52,1.88c-.76,.35-1.59,.08-1.89-.58-.72-1.75,.33-5.85,2.44-6.1,.55,.1,.96,.51,1.25,1.04-.01,0-.02,0-.03,0-1.27,.03-1.74,1.58-1.54,2.57,.09,1.07,.31,1.86,.66,2.44-.27,.25-.56,.48-.89,.63h0Z"/><g><path d="M210.07,13.05h0s.03-.04,.05-.05h0s-.04,.03-.05,.05Z"/><path d="M204.75,15.26c-.62-1.23,5.05-6.53,5.42-3.95,.11,.46,.51,.04,.47-.58,0-.83-1.1-1.21-1.72-1.19-1.02,0-1.76,.48-2.43,.92-.96,.72-2.52,2.26-2.84,3.73-2.14,1.76-4.62,3.16-7.33,3.51-5.66,1.09-2.07-9.19-5.66-7.98-1.8,1.34-2.93,3.75-5.17,4.42-.07,0-.06,0-.07-.04-.02-.03-.04-.04-.04-.09-.38-1.21,.24-2.75-.75-3.96-.25-.32-.8-.57-1.19-.34-1.88,1.77-3.42,3.76-5.2,5.61,.08-.65,.15-1.3,.22-1.96l.02-.05,.03-.43c.04-.41,.09-.82,.14-1.22,.04-.57,.19-1.13,.09-1.71h0v-.05c.05-1.04-1.48-1.08-1.51-.04-.22,.97-.09,2.4-.15,3.41v.77c-.23,.28-.49,.52-.76,.74-1.66,1.44-3.48,2.79-5.48,3.69-4.2,1.79-6.1,.64-4.37-3.99,.06-.1,.08-.51,.02-.62-.15-.41-.31-.54-.44-.71-.37-.34-.69-.7-.96-1.07,.53-.88,.96-1.83,1.26-2.86,.25-1.28,.91-2.53,.32-3.87-1.69-1.91-3.98,3.01-3.85,4.42-.04,1.12,.47,2.14,1.14,3-1.95,3.19-5.55,5.25-9.23,5.79-1.42,.32-2.85,.09-3.97-.61-1.4-.86-1.68-2.21-1.35-3.55,.64-.14,1.25-.32,1.86-.56,1.02-.4,2.27-1.23,2.24-2.49,.08-1.16-.82-1.61-1.8-1.18-1.04,.5-1.86,1.12-2.46,1.8,0,0-.02,0-.02,0-1.89,1.81-3.89,3.52-5.94,5.15-1.07,.82-2.16,1.63-3.29,2.37,.41-2.41,.67-4.82,.73-7.28,0-.22-.05-.44-.22-.61-.3-.3-.78-.3-1.08,0-.24,.38-.3,.94-.33,1.16-.05,.05-.09,.09-.13,.14-1.48,1.24-3.23,2.56-5.09,3.16,1.1-2.23,2.37-5.16,4.92-5.82,.33-.02,.6,.04,.48,.44-.03,.1,.1,.19,.17,.11,.8-1.13-1.14-1.45-1.99-1.12-2.58,.82-4.28,3.27-5.08,5.71-.35,.86-.32,2.3,.95,2.24,.45-.03,.8-.23,1.12-.44,1.74-1.19,3.01-2.75,4.61-4.05-.25,1.99-.61,4.75-1.21,7.62-.37,.19-.74,.39-1.13,.55-2.5,.91-4.7,2.52-6.73,4.2-1.8,1.61-6.78,5.96-3.79,8.31,8.68,4.22,12.6-6.98,13.69-13.6,2.9-1.71,5.52-3.83,8.13-5.96-.79,3.19,1.96,6.35,6.86,4.88,3.61-1.05,7.15-3,9.44-5.97,.32,.36,.65,.7,.96,.99,0,.07-.03,.15-.06,.21-1.55,5.25,1.35,6.97,5.84,4.5,1.98-1.09,3.73-2.48,5.39-3.99,.21-.2,.42-.39,.64-.57,0,.81-.02,1.61,0,2.42,0,.47,.67,.66,.91,.24,.83-1.65,1.89-3.17,3.08-4.57,.61-.67,1.2-1.43,2.06-1.77,.19-.08,.54-.2,.6-.09,0,.03-.11,0-.09,.03,.19,1.28-.02,4.86,2.08,4.42,1.53-.81,2.27-2.46,3.61-3.49,.47-.34,1.07-.9,1.64-.92,.02,3.58,.43,9.49,5.57,8.39,2.77-.52,5.15-2.04,7.1-3.99,.05,.32,.18,.62,.41,.91,.43,.4,.93,.44,1.37,.44,1.7-.19,2.73-1.45,3.9-2.49,.31-.27,.97-.93,.86-.93-.72,.61-3.92,3.54-5.42,2.31v.04Zm-52.78-4.52c.64-.41,1.16-.15,1.13,.63-.04,1.67-2.01,2.27-3.52,2.49,.46-1.24,1.39-2.41,2.39-3.12Zm-25.49,22.65c-3.53-2.81,7.68-11.08,10.4-11.59,.27-.12,.54-.26,.8-.39-1.59,7.18-4.69,14.68-11.2,11.98Zm38.16-21.98c-.54-1.05-.62-2.21,.05-3.47,.26-.56,.62-1.18,1.01-1.58,.05,1.24-.33,3.36-.9,4.68-.05,.12-.1,.24-.15,.37h-.01Zm26.36-.79h.08s-.05,0-.08,0Z"/></g><path d="M256.3,13.7c-2.19,2.31-5.13,4.33-8.34,4.55-2.58-.45-2.83-4.03-3.27-6.23-.2-.68-.08-2.78-1.35-2.48-1.67,1.67-3.12,3.51-4.5,5.41l.65-4.78c.12-1.12-1.56-1.27-1.63-.14,0,0-.06,1.55-.13,3.16-2.38,2.15-5.2,4.05-8.32,4.76-3.72,.87-3.27-4.37-3.37-6.78-.03-.78-1.23-1.12-1.38-.42-.03,.12-.08,.27-.08,.27-.05,.37-.09,.79-.11,1.23-.22,.36-.53,.67-.75,1.01-.55,.7-1.16,1.36-1.81,1.96-1.9,1.71-4.38,3.11-6.96,2.8-2.04-.45-2.79-2.81-3.13-4.67-.1-.41,.15-.98-.26-1.34,0,0-.4-.4-.77-.41-.23,0-.73,.35-.73,.35-.16,.26,.03,.78,.05,1.01,.03-.03,.06-.05,.09-.08l-.09,.09c.03,.24,.11,.47,.15,.7,.36,1.42,.86,2.78,1.84,3.93,.95,1.2,2.7,1.75,4.17,1.34l.69-.15c2.93-.87,5.15-3.05,6.94-5.39,.21-.25,.38-.52,.55-.78-.04,3.09,.91,7.09,4.54,6.6,2-.36,3.79-1.44,5.38-2.57,1.21-.9,2.32-1.92,3.32-3.02-.07,1.63-.13,3.19-.13,3.19-.08,.52,.68,.78,.92,.31,1.45-2.24,2.63-4.86,4.61-6.65v.05c.77,3.18,1.07,9.57,5.84,8.65,3.08-.79,5.8-2.74,7.67-5.25,.16-.21-.17-.45-.32-.24h.02Z"/><ellipse cx="225.83" cy="7.85" rx="1.02" ry=".68" transform="translate(156.23 222.83) rotate(-74.05)"/><ellipse cx="61.74" cy="7.97" rx="1.02" ry=".68" transform="translate(37.11 65.14) rotate(-74.05)"/></g><g><g><path d="M.38,25.54c-.17,0-.33-.12-.37-.29-.04-.2,.08-.4,.29-.45l4.92-1.08c.2-.05,.4,.08,.45,.29,.04,.2-.08,.4-.29,.45L.46,25.54h-.08Z"/><path d="M5.82,26.32c-.5,0-.85-.38-.89-.96-.06-.8,.46-1.78,1.29-1.89h0c.82-.11,1.33,0,1.58,.35,.13,.19,.24,.52-.02,1.02-.35,.67-1.3,1.48-1.96,1.48Zm.5-2.11h0c-.38,.05-.67,.65-.64,1.1,.01,.18,.06,.26,.14,.26,.21,0,.81-.38,1.17-.88,.19-.27,.2-.41,.19-.44h0s-.16-.14-.87-.04h0Z"/><path d="M43.12,26.3c-.26,0-.47-.06-.65-.18-.43-.28-.49-.8-.55-1.26-.08-.65-.15-.9-.55-.96-.48-.08-2.16,.38-3.8,.81-3.94,1.05-7.05,1.79-8.25,1.03-.28-.18-.46-.43-.52-.74-.1-.51-.12-1.01-.08-1.51-3.49,1.74-8.42,2.66-8.49,2.68-.62,.1-1.07,0-1.32-.33-.01,0-.02-.03-.03-.04-.36,.26-.87,.44-1.56,.35-.57-.07-.84-.36-.96-.6-.18-.35-.15-.77-.07-1.14-2.29,.76-7.89,2.45-9.24,1.39-.16-.13-.19-.36-.06-.53,.13-.16,.36-.19,.53-.06,.9,.71,5.97-.6,9.28-1.76,.15-.05,.31,0,.41,.11,.1,.12,.12,.28,.05,.42-.14,.27-.38,.92-.22,1.22,.02,.04,.08,.16,.38,.2,1.04,.13,1.35-.56,1.39-.65h0c.08-.2,.29-.3,.48-.22,.19,.07,.29,.28,.22,.48v.02c-.04,.1-.06,.28,0,.35,.05,.06,.24,.11,.62,.06,1.52-.24,5.91-1.32,8.74-2.85,.37-1.76,1.37-3.24,2.05-3.69,.46-.3,.77-.19,.91-.1,.33,.22,.42,.7,.28,1.48-.19,1.07-1.21,2-2.57,2.79-.09,.59-.1,1.21,.01,1.8,.02,.1,.07,.18,.18,.24,1.03,.65,5.02-.42,7.66-1.12,2.22-.59,3.52-.92,4.11-.83,.99,.16,1.1,1.03,1.17,1.61,.04,.31,.08,.64,.22,.73,.07,.04,.26,.1,.75-.03,2.28-.64,8.45-2.01,8.51-2.03,.12-.03,.25,0,.35,.1,.09,.09,.13,.22,.1,.34,0,0-.12,.62,.23,1,.34,.37,1.02,.38,1.53,.31,2.56-.31,7.88-1.7,7.93-1.71,.2-.05,.41,.07,.46,.27s-.07,.41-.27,.46c-.22,.06-5.42,1.41-8.03,1.73-1,.12-1.73-.07-2.18-.56-.32-.35-.42-.77-.44-1.1-1.5,.34-6.1,1.38-7.99,1.91-.27,.08-.51,.11-.71,.11h0Zm-11.72-6.84c-.12,.06-.36,.25-.65,.63-.38,.51-.74,1.18-.98,1.93,.87-.58,1.46-1.22,1.58-1.89,.07-.38,.06-.58,.04-.68h0Z"/><path d="M63.75,26.3h-.04c-1.32-.02-1.78-.92-1.77-1.69,0-.79,.49-1.65,1.27-1.65h0c.77,0,1.31,.19,1.61,.58,.33,.42,.23,.89,.22,.94-.05,.2-.25,.33-.45,.28-.2-.05-.32-.25-.28-.45,0,0,.03-.17-.08-.31-.15-.18-.51-.29-1.02-.29h0c-.26,0-.52,.45-.52,.9,0,.35,.13,.93,1.03,.94h.03c2.03,0,10.19-2.17,10.27-2.2,.2-.05,.41,.07,.46,.27,.05,.2-.07,.41-.27,.46-.34,.09-8.34,2.22-10.47,2.22h.01Z"/><path d="M75.27,26.09c-1.03,0-1.5-.46-1.69-.76-.29-.45-.28-1.04,.01-1.53,.37-.61,1.08-.93,1.9-.85,.23,.02,.92,.08,1.01,.61,.09,.48-.5,1.06-1.75,1.72,.24,.06,.55,.08,.89,.04,2.72-.31,5.27-.76,5.3-.76,.2-.03,.4,.1,.43,.31,.04,.2-.1,.4-.31,.43-.03,0-2.6,.45-5.34,.77-.17,.02-.32,.03-.46,.03h0Zm0-2.41c-.45,0-.83,.18-1.02,.5-.11,.18-.14,.38-.1,.55,.69-.35,1.33-.77,1.55-1.01-.06,0-.15-.03-.27-.04h-.16Z"/><path d="M82.03,26.83c-.16,0-.31-.1-.36-.27-.06-.2,.05-.41,.25-.47,.33-.1,.62-.73,.71-1.02,.06-.2,.26-.31,.47-.25,.2,.06,.31,.27,.25,.47-.04,.13-.4,1.29-1.21,1.53-.04,0-.07,.02-.11,.02h0Z"/><path d="M32.44,22.12c-2.84,0-5.6-.82-5.73-.86-.2-.06-.31-.27-.25-.47s.27-.31,.47-.25c.03,0,3.18,.94,6.07,.82,.2,0,.38,.15,.39,.36,0,.21-.15,.38-.36,.39-.2,0-.39,0-.59,.01Z"/><path d="M97,26.3c-.4,0-.76-.03-1.06-.11-1.08-.28-1.65-1.21-1.62-2.61-2.23,1.14-4.97,1.65-5.16,1.68-.2,.03-.4-.1-.44-.3s.1-.4,.3-.44c1.21-.22,3.63-.85,5.38-1.84,.02-.09,.03-.19,.05-.28,.29-1.4,1.27-3.84,2.22-3.67,.7,.11,.59,1.22,.54,1.69-.11,1.12-.99,2.02-2.12,2.72-.03,.27-.04,.53-.02,.78,.06,.87,.4,1.37,1.05,1.54,2.33,.6,9.2-1.88,9.27-1.9,.19-.07,.41,.03,.48,.22,.07,.19-.03,.41-.22,.48-.26,.09-5.64,2.04-8.65,2.04Zm-.51-6.72c-.32,.35-.87,1.37-1.18,2.51,.65-.51,1.1-1.09,1.17-1.75,.04-.39,.03-.62,.02-.76h0Z"/><path d="M107.12,26.18c-1.31,0-1.82-.45-2.02-.77-.25-.41-.21-.93,.11-1.4,.38-.54,1.06-.81,1.76-.69,.57,.1,1,.44,1.13,.91,.07,.24,.02,.47-.13,.65-.36,.43-1.27,.46-1.78,.43,.39,.13,1.03,.17,1.96,.03,2.64-.4,9.02-1.79,9.08-1.81,.2-.04,.4,.08,.45,.29,.04,.2-.08,.4-.29,.45-.06,0-6.47,1.41-9.13,1.82-.44,.07-.81,.09-1.14,.09Zm-.46-2.14c-.28,0-.62,.1-.83,.4-.04,.06-.09,.14-.12,.23,.08-.08,.19-.13,.31-.12,.59,.05,1.26-.02,1.37-.15-.07-.15-.27-.29-.55-.34-.06,0-.12-.02-.19-.02h.01Z"/><path d="M131.82,26.41c-.53,0-.92-.11-1.14-.36-.51-.57-.77-1.33-.86-2.15-3.48,1.84-9.93,2.39-11.03,2.39-1.28,0-1.73-.77-1.73-1.42,0-.76,.59-1.58,1.48-1.58,1.27,0,1.61,.8,1.61,1.22,0,.21-.17,.38-.38,.38s-.37-.16-.38-.37c0-.08-.07-.48-.86-.48-.43,0-.73,.44-.73,.83,0,.43,.36,.67,.98,.67,1.88,0,8.09-.77,10.99-2.46,0-1.7,.6-3.47,1.14-4.23,.35-.49,.66-.5,.87-.41,.36,.15,.64,.63,.22,3.09-.13,.75-.68,1.39-1.48,1.94,.04,.74,.22,1.52,.71,2.08,.53,.59,5.21-.97,7.2-1.64,2.02-.67,3-.99,3.42-.94,.68,.09,.78,.79,.85,1.29,.11,.79,.21,1.21,1.04,1.16,1.97-.11,8.9-2.33,8.97-2.35,.1-.03,.21-.02,.3,.03s.16,.15,.18,.25c.13,.68,.63,2.09,1.24,2.07,.91-.02,6.33-1.34,8.34-1.85,.21-.05,.41,.07,.46,.27s-.07,.4-.27,.46c-.3,.08-7.33,1.84-8.51,1.87-1.13,0-1.69-1.5-1.9-2.27-1.52,.48-6.96,2.16-8.77,2.27-1.57,.09-1.72-1.1-1.82-1.8-.05-.36-.1-.64-.2-.65-.3-.05-1.77,.47-3.08,.91-3.04,1.02-5.46,1.78-6.87,1.78h0Zm-.35-7.02c-.27,.43-.66,1.37-.85,2.59-.03,.17-.05,.36-.07,.57,.4-.35,.66-.72,.73-1.13,.19-1.11,.21-1.71,.19-2.03h0Z"/><path d="M154.25,21.56c-.21,0-.38-.17-.38-.38v-.77c0-.21,.17-.38,.38-.38s.38,.17,.38,.38v.77c0,.21-.17,.38-.38,.38Z"/><path d="M164.25,26.42c-1,0-1.45-.71-1.45-1.42,0-.82,.58-1.71,1.45-1.71,.48,0,.86,.15,1.12,.44,.38,.43,.33,.99,.32,1.05-.02,.21-.2,.35-.42,.33-.2-.02-.35-.21-.33-.41,0,0,.02-.29-.14-.47-.11-.12-.29-.18-.55-.18-.4,0-.7,.5-.7,.96,0,.31,.12,.67,.7,.67,1.28,0,7.55-1.42,10.69-2.17,.21-.05,.4,.08,.45,.28,.05,.2-.08,.4-.28,.45-.37,.09-9.17,2.19-10.86,2.19h0Z"/><path d="M176.24,26.47c-1.08,0-1.43-.56-1.54-.93-.26-.88,.4-2.18,.92-2.4,.5-.22,1.03-.18,1.4,.1,.3,.23,.45,.58,.4,.98-.1,.75-1.32,1.15-1.9,1.3,.24,.27,.8,.24,1.26,.17,2.81-.47,4.54-1.16,4.56-1.17,.19-.08,.41,.02,.49,.21s0,.41-.21,.49c-.07,.03-1.82,.73-4.72,1.21-.25,.04-.46,.06-.66,.06v-.02Zm.03-2.73c-.1,0-.22,.02-.35,.08-.13,.08-.39,.5-.49,.93,.67-.19,1.23-.49,1.25-.64,.02-.12-.02-.21-.1-.28-.07-.05-.17-.09-.31-.09h0Z"/><path d="M190.33,26.47c-1.08,0-1.43-.56-1.54-.93-.26-.88,.4-2.18,.92-2.4,.5-.22,1.03-.18,1.4,.1,.3,.23,.45,.58,.4,.98-.1,.75-1.32,1.15-1.9,1.3,.24,.27,.8,.24,1.26,.17,2.59-.43,7.88-2.01,10.83-3.58,.39-1.67,1.34-3.23,1.95-3.68,.38-.28,.66-.18,.79-.09,.38,.25,.4,.91,.07,2.18-.18,.7-1,1.41-2.15,2.07-.12,.64-.13,1.29,.03,1.86,.16,.56,.47,.92,.92,1.1,1.29,.51,3.55-.55,4.31-1,.18-.1,.41-.05,.51,.13,.11,.18,.05,.41-.13,.51-.12,.07-3.07,1.8-4.97,1.05-.68-.27-1.14-.8-1.37-1.58-.15-.51-.18-1.07-.13-1.64-3.53,1.76-9.09,3.16-10.56,3.4-.25,.04-.46,.06-.66,.06h.02Zm.03-2.74c-.1,0-.22,.02-.35,.08-.13,.07-.39,.5-.49,.93,.67-.19,1.23-.49,1.25-.64,.02-.12-.02-.21-.1-.28-.07-.05-.17-.09-.3-.09h0Zm13.63-4.65c-.36,.33-.96,1.31-1.35,2.44,.63-.42,1.05-.83,1.14-1.21,.17-.66,.21-1.03,.21-1.23Z"/><path d="M184.88,25.23c-.17,0-.32-.11-.36-.28-.05-.2,.07-.41,.27-.46l4.43-1.19c.2-.05,.41,.06,.46,.27s-.07,.41-.27,.46l-4.43,1.19s-.06,0-.1,0Z"/><path d="M204.95,22.15c-1.85,0-5.14-.74-5.3-.77-.2-.05-.33-.25-.28-.45s.25-.33,.45-.28c1.19,.27,4.52,.92,5.68,.72,.21-.03,.4,.1,.43,.31,.04,.2-.1,.4-.31,.43-.19,.03-.42,.05-.67,.05h0Z"/><path d="M132.73,21.87c-1.85,0-5.15-.74-5.3-.77-.2-.05-.33-.25-.28-.45s.25-.33,.45-.28c1.19,.27,4.53,.92,5.68,.72,.2-.03,.4,.1,.43,.31,.04,.2-.1,.4-.31,.43-.19,.03-.42,.05-.67,.05h0Z"/><path d="M218.98,26.28c-.41,0-.74-.09-.97-.29-.43-.35-.46-.9-.49-1.34-.02-.36-.05-.61-.17-.66-.51-.21-3.52,.45-6.14,1.2-.21,.06-.41-.06-.46-.26-.06-.2,.06-.41,.26-.46,1.31-.38,5.65-1.58,6.63-1.18,.57,.23,.61,.83,.64,1.31,.02,.34,.04,.66,.21,.8,.16,.13,.49,.15,.95,.08,2.37-.38,7.85-2.01,7.91-2.03,.2-.06,.41,.05,.47,.25s-.05,.41-.25,.47c-.23,.07-5.58,1.67-8.01,2.05-.2,.03-.39,.05-.56,.05h-.02Z"/><path d="M229.44,26.49c-1.2,0-1.93-.25-2.25-.77-.24-.38-.21-.87,.08-1.39,.25-.46,.85-1.11,1.28-1.11,.6,0,1.63,.21,1.69,1,.06,.75-1.19,1.05-1.93,1.17-.2,.03-.4-.11-.43-.31s.11-.4,.31-.43c.59-.09,1.22-.3,1.32-.44-.03-.06-.47-.24-.96-.24-.15,.08-.85,.82-.76,1.26,.08,.37,.84,.56,2.06,.5,2.91-.13,5.83-1.27,7.77-2.03,.91-.36,1.57-.61,1.98-.67,.25-.04,.49,.02,.67,.17,.42,.33,.49,.99,.56,1.63,.02,.22,.05,.52,.1,.69,.39-.26,.51-1.2,.52-1.65,0-.16,.11-.31,.26-.36s.33,0,.42,.14c0,.02,1.11,1.57,2.57,1.17,1.73-.46,6.47-1.58,6.52-1.59,.2-.05,.4,.08,.45,.28,.05,.2-.08,.4-.28,.45-.05,0-4.78,1.13-6.5,1.59-1.22,.33-2.2-.28-2.79-.81-.12,.59-.39,1.31-1.01,1.53-.2,.07-.39,.05-.55-.05-.35-.22-.4-.73-.46-1.31-.04-.39-.1-.99-.27-1.12,0,0-.03-.03-.11-.02-.32,.05-1.01,.32-1.81,.63-1.98,.77-4.97,1.94-8.01,2.08-.15,0-.3,0-.44,0h0Z"/><path d="M265.67,26.33c-.33,0-.61-.1-.83-.29-.16-.14-.26-.3-.33-.47-.35,.31-.85,.64-1.45,.72-.29,.04-.54-.06-.71-.26-.35-.42-.26-1.26-.12-1.89-1.97,.55-7.92,2.15-9.85,2.15-.54,0-.95-.12-1.23-.36-.26-.22-.4-.54-.4-.92,0-.72,.59-1.79,1.12-1.79h.12c.35-.02,1.28-.06,1.44,1.02,.04,.29-.03,.55-.22,.75-.39,.43-1.15,.46-1.45,.45,.14,.07,.35,.1,.61,.1,2.17,0,10.2-2.28,10.28-2.3,.13-.04,.28,0,.37,.1,.1,.1,.13,.24,.09,.37-.27,.86-.32,1.71-.19,1.84,.88-.11,1.52-1,1.52-1.01,.1-.14,.28-.19,.44-.14,.16,.06,.26,.22,.25,.38,0,.12,0,.52,.21,.7,.13,.11,.33,.13,.62,.07,.37-.08,1.25-.35,2.27-.65,5.62-1.69,7.4-2.05,7.93-1.6,.56,.48,.57,1.56,.22,2.23,.04,0,.08,0,.13,0,1.46,.13,7.11-1.45,9.18-2.07,.2-.06,.41,.05,.47,.25s-.05,.41-.25,.47c-.31,.09-7.59,2.27-9.46,2.1-.27-.02-.53-.07-.78-.12-.37,.12-.81,.05-1.26-.23l-.41-.25c-.26-.16-.52-.32-.36-.63s.49-.18,.61-.13c.23,.1,.73,.3,1.33,.45,.04-.04,.07-.08,.09-.11,.3-.41,.26-1.18,.01-1.4-.6-.26-5.07,1.1-7.22,1.75-1.08,.32-1.93,.58-2.33,.67-.16,.03-.3,.05-.44,.05h-.02Zm-13.72-2.38c-.12,.11-.32,.43-.41,.75,.05-.02,.11-.04,.17-.03,.29,.02,.79-.04,.94-.2,.02-.02,.04-.05,.03-.13-.05-.36-.2-.41-.66-.38h-.07Z"/><path d="M287,26.46c-1.08,0-1.43-.56-1.54-.93-.26-.88,.4-2.18,.92-2.4,.5-.22,1.03-.18,1.4,.1,.3,.23,.45,.58,.4,.98-.1,.75-1.32,1.15-1.9,1.3,.24,.27,.8,.24,1.26,.17,2.81-.47,4.54-1.16,4.56-1.16,.19-.08,.41,0,.49,.21,.08,.19-.01,.41-.21,.49-.07,.03-1.82,.73-4.72,1.21-.25,.04-.46,.06-.66,.06v-.03Zm.03-2.73c-.1,0-.22,.02-.35,.08-.13,.07-.39,.5-.49,.93,.67-.19,1.23-.49,1.25-.64,.02-.12-.02-.21-.1-.28-.07-.05-.17-.09-.3-.09h-.01Z"/><line class="f" x1="53.76" y1="20.52" x2="53.76" y2="20.91"/></g><polyline class="f" points="227.95 21.78 228.71 20.63 229.39 21.78"/></g></g></g></g></g></g></svg>