<?xml version="1.0" encoding="UTF-8"?><svg xmlns="http://www.w3.org/2000/svg" viewBox="0 0 179.72 179.81"><g id="a"/><g id="b"><g id="c"><path d="M12.3,179.81H0c.08-19.51,5.79-36.84,16.98-52.38,11.1-15.43,25.87-26.12,44.38-32.85-15.52-11.87-23.63-26.81-22.7-45.97,.65-13.42,6-24.82,15.63-34.14,19.65-19.02,50.74-19.34,70.62-.65,12.03,11.31,17.45,25.36,16.25,41.82-1.19,16.29-9.33,28.82-22.58,38.89,22.6,8.41,39.54,22.45,50.73,43.09,7.25,13.38,11.41,30.63,10.21,42.03h-12.19c-1.16-26.14-11.79-47.5-33.31-62.82-14.18-10.09-30.2-14.44-47.58-13.85-34.98,1.19-72.57,29.92-74.14,76.82ZM89.97,90.01c21.18-.02,38.55-17.32,38.58-38.42,.03-21.35-17.48-38.78-38.86-38.66-21.1,.11-38.33,17.51-38.33,38.69,0,21.03,17.48,38.41,38.61,38.39Z"/></g></g></svg>